# xmcd CD database file
#
# Track frame offsets:
#	150
#	18737
#	35335
#	51552
#	70740
#	88375
#	103510
#	120987
#	136680
#	150755
#	170242
#	186177
#	206450
#	224047
#	244585
#	263340
#	282777
#	303230
#	320405
#	346037
#
# Disc length: 4660 seconds
#
# Revision: 4
# Processed by: cddbd v1.5.2PL0 Copyright (c) Steve Scherf et al.
# Submitted via: CDex 1.50Beta7
#
DISCID=17123214
DTITLE=Westlife - Unbreakable - Vol 1
DYEAR=2002
DGENRE=Blues
TTITLE0=Swear It Again (Radio Edit)
TTITLE1=If I Let You Go (Radio Edit)
TTITLE2=Flying Without Wings
TTITLE3=I Have A Dream  (Remix)
TTITLE4=Fool Again  (2000 Remix)
TTITLE5=Against All Odds (with Mariah Carey)
TTITLE6=My Love (Radio Edit)
TTITLE7=I Lay My Love On You
TTITLE8=Uptown Girl (Radio Edit)
TTITLE9=Queen Of My Heart (Radio Edit)
TTITLE10=World Of Our Own (US Mix)
TTITLE11=Bop Bop Baby
TTITLE12=When You'r Looking Like That (Single Remix)
TTITLE13=Unbreakable  (Single Remix)
TTITLE14=Written In The Stars
TTITLE15=How Does If Feel
TTITLE16=Tonight
TTITLE17=Love Takes Two
TTITLE18=Miss You Nights
TTITLE19=Data Track
EXTD=YEAR: 2002
EXTT0=
EXTT1=
EXTT2=
EXTT3=
EXTT4=
EXTT5=
EXTT6=
EXTT7=
EXTT8=
EXTT9=
EXTT10=
EXTT11=
EXTT12=
EXTT13=
EXTT14=
EXTT15=
EXTT16=
EXTT17=
EXTT18=
EXTT19=
PLAYORDER=
